<svg xmlns="http://www.w3.org/2000/svg" width="137" height="50" viewBox="0 0 137 50">
    <g fill="none" fill-rule="evenodd">
        <g fill-rule="nonzero">
            <g>
                <path fill="#E1251B" d="M3.683 34.317c.974-1.29 2.428-1.746 3.925-1.746 3.107 0 5.323 2.057 5.323 5.081v8.29H9.246V38.78c0-1.876-.987-2.918-2.669-2.918-1.58 0-2.894.981-2.894 2.943v7.136H0V28.7h3.685l-.002 5.617zM26.724 39.375c.001.398-.022.795-.069 1.19h-9.244c.378 1.888 1.697 2.727 3.352 2.727 1.21-.026 2.374-.47 3.296-1.258l2.06 2.273c-1.482 1.365-3.364 1.986-5.559 1.986-3.996 0-6.767-2.726-6.767-6.856 0-4.129 2.69-6.937 6.594-6.937 3.756 0 6.322 2.8 6.337 6.883m-9.298-1.216h5.772c-.322-1.678-1.332-2.624-2.838-2.624-1.657 0-2.625 1-2.934 2.624M42.241 39.224c0 3.835-2.742 6.723-6.378 6.723-1.77 0-3.02-.672-3.877-1.662v5.456h-3.538V32.843h3.468v1.411c.859-1.043 2.122-1.754 3.932-1.754 3.645 0 6.393 2.887 6.393 6.724m-10.433 0c0 2.015 1.374 3.52 3.388 3.52 2.095 0 3.4-1.57 3.4-3.52s-1.305-3.52-3.4-3.52c-2.014 0-3.388 1.502-3.388 3.52M53.615 36.5c-1.068-.514-2.754-1.049-4.256-1.07-1.365 0-2.053.474-2.053 1.192 0 .757.963.946 2.177 1.122l1.184.176c2.895.432 4.505 1.703 4.505 3.922 0 2.706-2.26 4.451-6.131 4.451-1.818 0-4.2-.34-5.938-1.544l1.42-2.676c1.144.742 2.535 1.284 4.545 1.284 1.67 0 2.468-.46 2.468-1.232 0-.629-.675-.985-2.22-1.204l-1.087-.146c-3.085-.42-4.615-1.746-4.615-3.986 0-2.693 2.122-4.287 5.634-4.287 1.935-.036 3.85.391 5.58 1.244L53.615 36.5zM57.759 33H61.207V45.931H57.759zM46.461 28.448L30.173 14.158 13.884 28.448 6.897 20.418 30.173 0 53.448 20.418z" transform="translate(-70 -1279) translate(70 1279)"/>
                <path fill="#2D2A26" d="M76.724 39.375c0 .397-.022.794-.067 1.189h-9.246c.38 1.887 1.699 2.726 3.354 2.726 1.209-.027 2.372-.471 3.294-1.258l2.062 2.27c-1.48 1.368-3.364 1.991-5.557 1.991-3.996 0-6.769-2.726-6.77-6.851-.003-4.125 2.687-6.94 6.589-6.942 3.756 0 6.324 2.796 6.341 6.88m-9.3-1.211h5.774c-.324-1.678-1.334-2.622-2.84-2.622-1.657 0-2.625 1.003-2.934 2.626M99.136 37.48v8.464h-3.57V38.63c0-1.915-.975-2.979-2.595-2.979-1.536 0-2.813 1.003-2.811 3.005v7.288h-3.583v-7.307c0-1.915-.962-2.98-2.597-2.98-1.536 0-2.814 1.003-2.811 3.005v7.288h-3.583V32.655h3.487v1.564c.945-1.413 2.4-1.915 3.91-1.915 1.916 0 3.501.864 4.393 2.277 1.028-1.687 2.767-2.279 4.515-2.281 3.129 0 5.245 2.098 5.247 5.186M101.724 28.7H105.172V45.941H101.724zM121.552 45.951h-3.47v-1.447c-.855 1.049-2.133 1.787-3.942 1.79-3.63 0-6.38-2.96-6.381-6.895-.002-3.936 2.741-6.897 6.374-6.899 1.81 0 3.075.73 3.946 1.797V32.85h3.469l.004 13.101zm-10.162-6.554c0 2.002 1.32 3.61 3.401 3.608 2.027 0 3.4-1.543 3.397-3.61-.002-2.068-1.375-3.611-3.401-3.61-2.08 0-3.397 1.611-3.397 3.612M126.834 37.547L128.088 37.547 131.802 32.905 136.158 32.902 131.215 39.038 136.207 45.935 131.836 45.937 128.035 40.667 126.836 40.667 126.838 45.939 123.284 45.941 123.276 28.7 126.83 28.7z" transform="translate(-70 -1279) translate(70 1279)"/>
                <path fill="#E1251B" d="M61.51 29.155c0 .872-.525 1.658-1.33 1.991-.806.334-1.733.15-2.35-.468-.616-.616-.8-1.544-.465-2.349.334-.805 1.12-1.33 1.992-1.329.572 0 1.12.227 1.523.631.404.405.63.953.63 1.524" transform="translate(-70 -1279) translate(70 1279)"/>
            </g>
        </g>
    </g>
</svg>
